<?xml version="1.0" encoding="utf-8"?>
<!-- Generator: Adobe Illustrator 23.0.3, SVG Export Plug-In . SVG Version: 6.00 Build 0)  -->
<svg version="1.1" id="Icons" xmlns="http://www.w3.org/2000/svg" xmlns:xlink="http://www.w3.org/1999/xlink" x="0px" y="0px"
	 viewBox="0 0 791.96 941.42" style="enable-background:new 0 0 791.96 941.42;" xml:space="preserve">
<style type="text/css">
	.st0{fill-rule:evenodd;clip-rule:evenodd;}
</style>
<path class="st0" d="M197.12,779.55c131.46-84.82,262.26-78.92,394.41-15.44c-25.89,6.57-49.53,21.11-77.99,15.24
	c-68.58-14.14-137.33-5.85-205.35,12.36c-5.81,1.55-14.16,1-18.27-3.51c-21.82-23.92-44.96-22.36-68.95-8.97
	c-22.21,12.39-34.65,30.13-53.24,73.04c-37.76-56.08-25.08-198.05,18.69-240.79c-3.8-111.42-5.89-220.17-11.97-328.51
	c-2.46-43.82-10.79-88.08-21.63-129.77c-11.64-44.75-37.78-73.42-74.3-80.17c-7.28-1.34-16.36,2.66-22.83,8
	c-13.44,11.09-26.25,19.09-40.81,4.82C2.52,73.78-3.55,45.46,2.17,26.26C8.66,4.43,22.51-2.85,38.23,0.97
	c26.2,6.37,52.89,12.35,77.78,24.33c45.6,21.95,74.38,69.11,85.44,129.71c11.59,63.55,17.3,129.14,23.77,194.16
	c7.08,71.13,12.07,142.63,18.03,213.95c1.76,21.11,7.2,28.26,26.18,24.99c121.33-20.89,239.46-1.27,353.39,58.45
	c14,7.34,27.19,19.24,38.67,32.27c4.82,5.48,4.21,19.4,6.07,29.48c-6.59,1.14-13.74,5.08-19.7,3
	c-74.32-25.9-148.61-51.75-225.7-58.92c-44.7-4.16-88.77-1.16-131.28,19.71C249.9,692.22,218.8,727.58,197.12,779.55z"/>
<path class="st0" d="M621.86,587.88c9.72-22.69,19.44-45.39,30.85-72c-29.31-18.84-57.09-36.69-86.13-55.36
	c-16.73,38.29-32.08,73.42-47.44,108.55c-0.95-0.44-1.9-0.88-2.85-1.32c8.92-37.25,17.84-74.49,27.69-115.64
	c-19.2-6.49-38.6-13.63-58.27-19.01c-2.63-0.72-8.19,6.64-9.75,11.69c-7.22,23.36-13.51,47.22-23.32,70.01
	c2.16-28.2,4.32-56.4,6.86-89.55c-21.77-2.77-44.04-6.02-66.39-7.84c-2.22-0.18-5.6,7.9-7.07,12.86c-2.19,7.4-3.17,15.44-6.69,23.14
	c0-12.05,0-24.11,0-38.16c-23.36,0-45.37,0-67.38,0c-0.42-2.34-0.84-4.69-1.26-7.03c18.43-7.43,36.57-16.82,55.38-21.61
	c12.88-3.29,18.33-10.4,19.79-26.98c1.37-15.54,4.46-30.8,7.34-49.83c-35.01,0-68.67,0-102.32,0c-0.1-2.5-0.21-5-0.31-7.49
	c27.53-3.61,55.03-9.53,82.59-10.03c18.86-0.35,29.05-6.59,32.49-32.76c2.48-18.91,9.02-36.88,14.56-58.37
	c-54.87,2.94-107.54,5.76-160.19,8.58c-0.15-1.47-0.3-2.93-0.44-4.4c37-8.53,73.91-17.87,111.03-25.42
	c92.37-18.78,185.06-35.57,278.73-24.65c30.22,3.53,61.04,12.17,89.4,26.24c47.04,23.33,62.3,71.05,48.09,134.98
	c-3.05,13.71-6.74,27.42-11.67,40.09c-36.49,93.84-92.29,165.77-150.28,235.13C623.89,590.42,622.88,589.15,621.86,587.88z
	 M424.71,291.31c18.59,0,33.04-2.68,46.66,0.64c19.6,4.77,29.78-4.89,38.04-27.67c7.86-21.67,19.22-41.1,30.38-64.28
	c-24.85,0-46.43-0.45-67.98,0.38c-4.27,0.17-10.28,3.8-12.33,8.35C448.17,233.86,437.84,259.75,424.71,291.31z M645.95,212.03
	c-19.3-2.72-37.04-5.42-54.83-7.52c-2.41-0.28-5.96,1.45-7.4,3.9c-16.87,28.68-33.44,57.69-51.58,89.19
	c21.13,4.42,37.79,8.62,54.6,10.95c4.5,0.63,11.4-2.61,13.88-7.22C615.68,273.22,629.78,244.22,645.95,212.03z M701.84,398.95
	c-27.02-10.68-52.32-21.04-77.84-30.3c-3.25-1.18-9.04,1.94-11.34,5.61c-8.57,13.73-16.19,28.52-25.03,44.47
	c29.89,16.35,57.84,31.64,86.7,47.44C683.5,443.79,692.06,422.86,701.84,398.95z M642.32,323.37
	c27.08,10.09,50.59,18.85,73.85,27.52c16.55-51.03,12.28-84.81-14.5-110.73C682.68,266.77,663.52,293.65,642.32,323.37z
	 M397.21,377.99c14.42,0,26.23-0.27,38.04,0.05c34.89,0.93,34.91,1.03,46.68-43c0.52-1.94,0.29-4.22,0.55-9.01
	c-19.64-3.73-39.1-7.78-58.65-10.73c-2.93-0.44-7.96,3.26-9.18,6.78C408.57,339.58,403.43,357.67,397.21,377.99z M559.05,406.6
	c6.61-18.38,12.63-35.11,19.37-53.87c-9.24-2.95-16.82-5.42-24.42-7.78c-39.8-12.38-39.81-12.37-56.15,36.44
	c-0.36,1.09,0.1,2.68,0.24,5.03C517.68,392.9,537.43,399.44,559.05,406.6z"/>
<path class="st0" d="M215.14,941.42c-27.77-0.27-45.65-25.72-43.98-62.6c2.33-51.33,42.46-101.34,81.23-101.23
	c28.23,0.08,47.29,27.26,44.98,64.13C294.1,893.67,254.4,941.8,215.14,941.42z M257.46,854.84c0.22-20.38-8.78-33.69-23.13-34.22
	c-19.89-0.73-39.89,26.18-40.2,54.07c-0.22,20.14,8.94,33.67,23.21,34.27C237.09,909.78,257.16,882.7,257.46,854.84z"/>
<path class="st0" d="M550.08,941.39c-29.53,0.41-47.8-26.2-44.9-65.37c3.68-49.57,40.16-95.66,77.85-98.34
	c31.23-2.23,51.82,27.9,47.19,69.05C624.54,897.31,587.66,940.87,550.08,941.39z M552.53,908.95c19.9-0.61,39.52-28.99,38.86-56.21
	c-0.48-19.74-10.42-32.49-24.99-32.05c-19.89,0.59-39.71,29.12-38.99,56.11C527.92,896.18,538.25,909.39,552.53,908.95z"/>
</svg>
